<?xml version="1.0" encoding="UTF-8" standalone="no"?>
<!DOCTYPE svg PUBLIC "-//W3C//DTD SVG 1.1//EN"
 "http://www.w3.org/Graphics/SVG/1.1/DTD/svg11.dtd">
<!-- Generated by graphviz version 2.43.0 (0)
 -->
<!-- Title: MultiPhase.H Pages: 1 -->
<svg width="1019pt" height="252pt"
 viewBox="0.00 0.00 1018.50 252.00" xmlns="http://www.w3.org/2000/svg" xmlns:xlink="http://www.w3.org/1999/xlink">
<g id="graph0" class="graph" transform="scale(1 1) rotate(0) translate(4 248)">
<title>MultiPhase.H</title>
<polygon fill="white" stroke="transparent" points="-4,4 -4,-248 1014.5,-248 1014.5,4 -4,4"/>
<!-- Node1 -->
<g id="node1" class="node">
<title>Node1</title>
<g id="a_node1"><a xlink:title=" ">
<polygon fill="#bfbfbf" stroke="black" points="353,-224.5 353,-243.5 434,-243.5 434,-224.5 353,-224.5"/>
<text text-anchor="middle" x="393.5" y="-231.5" font-family="Helvetica,sans-Serif" font-size="10.00">MultiPhase.H</text>
</a>
</g>
</g>
<!-- Node2 -->
<g id="node2" class="node">
<title>Node2</title>
<g id="a_node2"><a xlink:href="levelset__ops_8_h.html" target="_top" xlink:title=" ">
<polygon fill="white" stroke="black" points="0,-168.5 0,-187.5 89,-187.5 89,-168.5 0,-168.5"/>
<text text-anchor="middle" x="44.5" y="-175.5" font-family="Helvetica,sans-Serif" font-size="10.00">levelset_ops.H</text>
</a>
</g>
</g>
<!-- Node1&#45;&gt;Node2 -->
<g id="edge1" class="edge">
<title>Node1&#45;&gt;Node2</title>
<path fill="none" stroke="midnightblue" d="M342.6,-225.54C283.59,-216.82 183.43,-201.83 97.5,-188 94.74,-187.56 91.89,-187.09 89.02,-186.62"/>
<polygon fill="midnightblue" stroke="midnightblue" points="342.36,-229.04 352.77,-227.04 343.39,-222.11 342.36,-229.04"/>
</g>
<!-- Node4 -->
<g id="node4" class="node">
<title>Node4</title>
<g id="a_node4"><a xlink:href="vof__ops_8_h.html" target="_top" xlink:title=" ">
<polygon fill="white" stroke="black" points="107,-168.5 107,-187.5 172,-187.5 172,-168.5 107,-168.5"/>
<text text-anchor="middle" x="139.5" y="-175.5" font-family="Helvetica,sans-Serif" font-size="10.00">vof_ops.H</text>
</a>
</g>
</g>
<!-- Node1&#45;&gt;Node4 -->
<g id="edge3" class="edge">
<title>Node1&#45;&gt;Node4</title>
<path fill="none" stroke="midnightblue" d="M342.67,-222.38C299.5,-213.33 235.91,-199.94 180.5,-188 177.79,-187.42 174.99,-186.81 172.17,-186.2"/>
<polygon fill="midnightblue" stroke="midnightblue" points="342.14,-225.84 352.65,-224.47 343.58,-218.99 342.14,-225.84"/>
</g>
<!-- Node6 -->
<g id="node6" class="node">
<title>Node6</title>
<g id="a_node6"><a xlink:href="_multi_phase_8cpp.html" target="_top" xlink:title=" ">
<polygon fill="white" stroke="black" points="190,-168.5 190,-187.5 281,-187.5 281,-168.5 190,-168.5"/>
<text text-anchor="middle" x="235.5" y="-175.5" font-family="Helvetica,sans-Serif" font-size="10.00">MultiPhase.cpp</text>
</a>
</g>
</g>
<!-- Node1&#45;&gt;Node6 -->
<g id="edge5" class="edge">
<title>Node1&#45;&gt;Node6</title>
<path fill="none" stroke="midnightblue" d="M358.89,-221.17C329.14,-211 286.95,-196.59 260.42,-187.52"/>
<polygon fill="midnightblue" stroke="midnightblue" points="357.87,-224.52 368.46,-224.44 360.13,-217.9 357.87,-224.52"/>
</g>
<!-- Node7 -->
<g id="node7" class="node">
<title>Node7</title>
<g id="a_node7"><a xlink:href="_rain_drop_8cpp.html" target="_top" xlink:title=" ">
<polygon fill="white" stroke="black" points="299.5,-168.5 299.5,-187.5 381.5,-187.5 381.5,-168.5 299.5,-168.5"/>
<text text-anchor="middle" x="340.5" y="-175.5" font-family="Helvetica,sans-Serif" font-size="10.00">RainDrop.cpp</text>
</a>
</g>
</g>
<!-- Node1&#45;&gt;Node7 -->
<g id="edge6" class="edge">
<title>Node1&#45;&gt;Node7</title>
<path fill="none" stroke="midnightblue" d="M377.52,-216.72C368.18,-207.2 356.75,-195.56 349.09,-187.75"/>
<polygon fill="midnightblue" stroke="midnightblue" points="375.25,-219.4 384.75,-224.08 380.24,-214.49 375.25,-219.4"/>
</g>
<!-- Node8 -->
<g id="node8" class="node">
<title>Node8</title>
<g id="a_node8"><a xlink:href="_vortex_patch_8cpp.html" target="_top" xlink:title=" ">
<polygon fill="white" stroke="black" points="400,-168.5 400,-187.5 495,-187.5 495,-168.5 400,-168.5"/>
<text text-anchor="middle" x="447.5" y="-175.5" font-family="Helvetica,sans-Serif" font-size="10.00">VortexPatch.cpp</text>
</a>
</g>
</g>
<!-- Node1&#45;&gt;Node8 -->
<g id="edge7" class="edge">
<title>Node1&#45;&gt;Node8</title>
<path fill="none" stroke="midnightblue" d="M409.5,-217C419.07,-207.43 430.86,-195.64 438.75,-187.75"/>
<polygon fill="midnightblue" stroke="midnightblue" points="407.01,-214.54 402.42,-224.08 411.96,-219.49 407.01,-214.54"/>
</g>
<!-- Node9 -->
<g id="node9" class="node">
<title>Node9</title>
<g id="a_node9"><a xlink:href="_n_w_b_8cpp.html" target="_top" xlink:title=" ">
<polygon fill="white" stroke="black" points="513,-168.5 513,-187.5 574,-187.5 574,-168.5 513,-168.5"/>
<text text-anchor="middle" x="543.5" y="-175.5" font-family="Helvetica,sans-Serif" font-size="10.00">NWB.cpp</text>
</a>
</g>
</g>
<!-- Node1&#45;&gt;Node9 -->
<g id="edge8" class="edge">
<title>Node1&#45;&gt;Node9</title>
<path fill="none" stroke="midnightblue" d="M426.72,-221.04C454.95,-210.88 494.76,-196.55 519.84,-187.52"/>
<polygon fill="midnightblue" stroke="midnightblue" points="425.49,-217.76 417.27,-224.44 427.86,-224.35 425.49,-217.76"/>
</g>
<!-- Node10 -->
<g id="node10" class="node">
<title>Node10</title>
<g id="a_node10"><a xlink:href="_zalesak_disk_8cpp.html" target="_top" xlink:title=" ">
<polygon fill="white" stroke="black" points="592.5,-168.5 592.5,-187.5 690.5,-187.5 690.5,-168.5 592.5,-168.5"/>
<text text-anchor="middle" x="641.5" y="-175.5" font-family="Helvetica,sans-Serif" font-size="10.00">ZalesakDisk.cpp</text>
</a>
</g>
</g>
<!-- Node1&#45;&gt;Node10 -->
<g id="edge9" class="edge">
<title>Node1&#45;&gt;Node10</title>
<path fill="none" stroke="midnightblue" d="M442.73,-222.28C489.59,-212.08 559.2,-196.92 602.39,-187.52"/>
<polygon fill="midnightblue" stroke="midnightblue" points="441.82,-218.9 432.8,-224.44 443.31,-225.74 441.82,-218.9"/>
</g>
<!-- Node11 -->
<g id="node11" class="node">
<title>Node11</title>
<g id="a_node11"><a xlink:href="_two_phase_transport_8_h.html" target="_top" xlink:title=" ">
<polygon fill="white" stroke="black" points="708.5,-168.5 708.5,-187.5 828.5,-187.5 828.5,-168.5 708.5,-168.5"/>
<text text-anchor="middle" x="768.5" y="-175.5" font-family="Helvetica,sans-Serif" font-size="10.00">TwoPhaseTransport.H</text>
</a>
</g>
</g>
<!-- Node1&#45;&gt;Node11 -->
<g id="edge10" class="edge">
<title>Node1&#45;&gt;Node11</title>
<path fill="none" stroke="midnightblue" d="M444.53,-225.65C513.52,-215.72 636.29,-198.04 709.26,-187.53"/>
<polygon fill="midnightblue" stroke="midnightblue" points="443.74,-222.23 434.35,-227.12 444.74,-229.16 443.74,-222.23"/>
</g>
<!-- Node3 -->
<g id="node3" class="node">
<title>Node3</title>
<g id="a_node3"><a xlink:href="levelset_8cpp.html" target="_top" xlink:title=" ">
<polygon fill="white" stroke="black" points="6.5,-112.5 6.5,-131.5 82.5,-131.5 82.5,-112.5 6.5,-112.5"/>
<text text-anchor="middle" x="44.5" y="-119.5" font-family="Helvetica,sans-Serif" font-size="10.00">levelset.cpp</text>
</a>
</g>
</g>
<!-- Node2&#45;&gt;Node3 -->
<g id="edge2" class="edge">
<title>Node2&#45;&gt;Node3</title>
<path fill="none" stroke="midnightblue" d="M44.5,-157.8C44.5,-148.91 44.5,-138.78 44.5,-131.75"/>
<polygon fill="midnightblue" stroke="midnightblue" points="41,-158.08 44.5,-168.08 48,-158.08 41,-158.08"/>
</g>
<!-- Node5 -->
<g id="node5" class="node">
<title>Node5</title>
<g id="a_node5"><a xlink:href="vof_8cpp.html" target="_top" xlink:title=" ">
<polygon fill="white" stroke="black" points="113.5,-112.5 113.5,-131.5 165.5,-131.5 165.5,-112.5 113.5,-112.5"/>
<text text-anchor="middle" x="139.5" y="-119.5" font-family="Helvetica,sans-Serif" font-size="10.00">vof.cpp</text>
</a>
</g>
</g>
<!-- Node4&#45;&gt;Node5 -->
<g id="edge4" class="edge">
<title>Node4&#45;&gt;Node5</title>
<path fill="none" stroke="midnightblue" d="M139.5,-157.8C139.5,-148.91 139.5,-138.78 139.5,-131.75"/>
<polygon fill="midnightblue" stroke="midnightblue" points="136,-158.08 139.5,-168.08 143,-158.08 136,-158.08"/>
</g>
<!-- Node12 -->
<g id="node12" class="node">
<title>Node12</title>
<g id="a_node12"><a xlink:href="_turb_model_defs_8_h.html" target="_top" xlink:title=" ">
<polygon fill="white" stroke="black" points="718.5,-112.5 718.5,-131.5 818.5,-131.5 818.5,-112.5 718.5,-112.5"/>
<text text-anchor="middle" x="768.5" y="-119.5" font-family="Helvetica,sans-Serif" font-size="10.00">TurbModelDefs.H</text>
</a>
</g>
</g>
<!-- Node11&#45;&gt;Node12 -->
<g id="edge11" class="edge">
<title>Node11&#45;&gt;Node12</title>
<path fill="none" stroke="midnightblue" d="M768.5,-157.8C768.5,-148.91 768.5,-138.78 768.5,-131.75"/>
<polygon fill="midnightblue" stroke="midnightblue" points="765,-158.08 768.5,-168.08 772,-158.08 765,-158.08"/>
</g>
<!-- Node13 -->
<g id="node13" class="node">
<title>Node13</title>
<g id="a_node13"><a xlink:href="_laminar_model_8cpp.html" target="_top" xlink:title=" ">
<polygon fill="white" stroke="black" points="445,-56.5 445,-75.5 552,-75.5 552,-56.5 445,-56.5"/>
<text text-anchor="middle" x="498.5" y="-63.5" font-family="Helvetica,sans-Serif" font-size="10.00">LaminarModel.cpp</text>
</a>
</g>
</g>
<!-- Node12&#45;&gt;Node13 -->
<g id="edge12" class="edge">
<title>Node12&#45;&gt;Node13</title>
<path fill="none" stroke="midnightblue" d="M715.87,-110.47C664.84,-100.27 588.4,-84.98 541.08,-75.52"/>
<polygon fill="midnightblue" stroke="midnightblue" points="715.23,-113.91 725.72,-112.44 716.6,-107.05 715.23,-113.91"/>
</g>
<!-- Node14 -->
<g id="node14" class="node">
<title>Node14</title>
<g id="a_node14"><a xlink:href="_one_eq_ksgs_8cpp.html" target="_top" xlink:title=" ">
<polygon fill="white" stroke="black" points="570.5,-56.5 570.5,-75.5 662.5,-75.5 662.5,-56.5 570.5,-56.5"/>
<text text-anchor="middle" x="616.5" y="-63.5" font-family="Helvetica,sans-Serif" font-size="10.00">OneEqKsgs.cpp</text>
</a>
</g>
</g>
<!-- Node12&#45;&gt;Node14 -->
<g id="edge13" class="edge">
<title>Node12&#45;&gt;Node14</title>
<path fill="none" stroke="midnightblue" d="M734.83,-109.04C706.23,-98.88 665.89,-84.55 640.47,-75.52"/>
<polygon fill="midnightblue" stroke="midnightblue" points="733.82,-112.39 744.42,-112.44 736.16,-105.8 733.82,-112.39"/>
</g>
<!-- Node15 -->
<g id="node15" class="node">
<title>Node15</title>
<g id="a_node15"><a xlink:href="_smagorinsky_8cpp.html" target="_top" xlink:title=" ">
<polygon fill="white" stroke="black" points="680.5,-56.5 680.5,-75.5 778.5,-75.5 778.5,-56.5 680.5,-56.5"/>
<text text-anchor="middle" x="729.5" y="-63.5" font-family="Helvetica,sans-Serif" font-size="10.00">Smagorinsky.cpp</text>
</a>
</g>
</g>
<!-- Node12&#45;&gt;Node15 -->
<g id="edge14" class="edge">
<title>Node12&#45;&gt;Node15</title>
<path fill="none" stroke="midnightblue" d="M756.12,-103.86C749.36,-94.5 741.29,-83.33 735.82,-75.75"/>
<polygon fill="midnightblue" stroke="midnightblue" points="753.37,-106.03 762.06,-112.08 759.04,-101.93 753.37,-106.03"/>
</g>
<!-- Node16 -->
<g id="node16" class="node">
<title>Node16</title>
<g id="a_node16"><a xlink:href="_k_omega_s_s_t_i_8_h.html" target="_top" xlink:title=" ">
<polygon fill="white" stroke="black" points="835,-56.5 835,-75.5 924,-75.5 924,-56.5 835,-56.5"/>
<text text-anchor="middle" x="879.5" y="-63.5" font-family="Helvetica,sans-Serif" font-size="10.00">KOmegaSSTI.H</text>
</a>
</g>
</g>
<!-- Node12&#45;&gt;Node16 -->
<g id="edge15" class="edge">
<title>Node12&#45;&gt;Node16</title>
<path fill="none" stroke="midnightblue" d="M795.51,-107.86C816.09,-97.85 843.84,-84.35 861.71,-75.65"/>
<polygon fill="midnightblue" stroke="midnightblue" points="793.8,-104.8 786.33,-112.32 796.86,-111.1 793.8,-104.8"/>
</g>
<!-- Node17 -->
<g id="node17" class="node">
<title>Node17</title>
<g id="a_node17"><a xlink:href="_k_omega_s_s_t_8cpp.html" target="_top" xlink:title=" ">
<polygon fill="white" stroke="black" points="767,-0.5 767,-19.5 862,-19.5 862,-0.5 767,-0.5"/>
<text text-anchor="middle" x="814.5" y="-7.5" font-family="Helvetica,sans-Serif" font-size="10.00">KOmegaSST.cpp</text>
</a>
</g>
</g>
<!-- Node12&#45;&gt;Node17 -->
<g id="edge18" class="edge">
<title>Node12&#45;&gt;Node17</title>
<path fill="none" stroke="midnightblue" d="M776.11,-103.03C779.6,-94.8 783.77,-84.91 787.5,-76 795.9,-55.94 805.67,-32.35 810.85,-19.84"/>
<polygon fill="midnightblue" stroke="midnightblue" points="772.83,-101.81 772.16,-112.38 779.28,-104.54 772.83,-101.81"/>
</g>
<!-- Node18 -->
<g id="node18" class="node">
<title>Node18</title>
<g id="a_node18"><a xlink:href="_k_omega_s_s_t_i_d_d_e_s_8cpp.html" target="_top" xlink:title=" ">
<polygon fill="white" stroke="black" points="884.5,-0.5 884.5,-19.5 1010.5,-19.5 1010.5,-0.5 884.5,-0.5"/>
<text text-anchor="middle" x="947.5" y="-7.5" font-family="Helvetica,sans-Serif" font-size="10.00">KOmegaSSTIDDES.cpp</text>
</a>
</g>
</g>
<!-- Node12&#45;&gt;Node18 -->
<g id="edge19" class="edge">
<title>Node12&#45;&gt;Node18</title>
<path fill="none" stroke="midnightblue" d="M828.92,-119.49C864.13,-115.37 906.74,-104.25 933.5,-76 948.11,-60.58 948.95,-33.75 948.27,-19.87"/>
<polygon fill="midnightblue" stroke="midnightblue" points="828.33,-116.04 818.73,-120.52 829.03,-123 828.33,-116.04"/>
</g>
<!-- Node16&#45;&gt;Node17 -->
<g id="edge16" class="edge">
<title>Node16&#45;&gt;Node17</title>
<path fill="none" stroke="midnightblue" d="M861.23,-49.82C849.58,-40.15 834.9,-27.95 825.13,-19.83"/>
<polygon fill="midnightblue" stroke="midnightblue" points="859.13,-52.63 869.06,-56.32 863.6,-47.24 859.13,-52.63"/>
</g>
<!-- Node16&#45;&gt;Node18 -->
<g id="edge17" class="edge">
<title>Node16&#45;&gt;Node18</title>
<path fill="none" stroke="midnightblue" d="M898.26,-50.1C910.5,-40.38 926.06,-28.03 936.38,-19.83"/>
<polygon fill="midnightblue" stroke="midnightblue" points="896.08,-47.36 890.43,-56.32 900.43,-52.85 896.08,-47.36"/>
</g>
</g>
</svg>
